<svg width="27" height="24" viewBox="0 0 27 24" fill="none" xmlns="http://www.w3.org/2000/svg">
<path d="M26.7701 11.4651L21.0936 5.77599C20.7868 5.4705 20.3266 5.4705 20.0197 5.77599C19.7129 6.08148 19.7129 6.53956 20.0197 6.84508L24.392 11.2358H7.28652C6.86463 11.2358 6.51953 11.5794 6.51953 11.9994C6.51953 12.4194 6.86465 12.763 7.28652 12.763H24.392L20.0195 17.116C19.7126 17.4214 19.7126 17.8795 20.0195 18.185C20.1728 18.3377 20.3646 18.4141 20.5564 18.4141C20.7482 18.4141 20.94 18.3377 21.0933 18.185L26.7695 12.5342C26.9228 12.3816 26.9996 12.1906 26.9996 11.9997C26.9998 11.8087 26.9231 11.6178 26.7698 11.4652L26.7701 11.4651Z" fill="#979797"/>
<path d="M4.33396 23.4543H14.1907C14.6126 23.4543 14.9577 23.1107 14.9577 22.6907C14.9577 22.2707 14.6126 21.9272 14.1907 21.9272L4.33396 21.9269C2.79998 21.9269 1.53426 20.6669 1.53426 19.1397V4.85974C1.53426 3.33261 2.79991 2.07254 4.33396 2.07254H14.1907C14.6126 2.07254 14.9577 1.72897 14.9577 1.30898C14.9577 0.888963 14.6126 0.54541 14.1907 0.54541H4.33396C1.95614 0.54541 0 2.49261 0 4.85974V19.1015C0 21.507 1.95614 23.4545 4.33396 23.4545V23.4543Z" fill="#979797"/>
</svg>
