<svg width="22" height="28" viewBox="0 0 22 28" fill="none" xmlns="http://www.w3.org/2000/svg">
<path d="M21.9738 27.0537L20.1986 8.79609C20.1639 8.4106 19.8504 8.13021 19.4675 8.13021H16.1257V5.15139C16.1257 2.31293 13.8283 0 11.0088 0C8.18934 0 5.89188 2.31293 5.89188 5.15139V8.13021H2.55009C2.16718 8.13021 1.85397 8.41059 1.81898 8.79609L0.00884574 27.1589C-0.0258756 27.3691 0.0435669 27.5793 0.18294 27.7546C0.322071 27.9298 0.53113 28 0.739941 28H21.2425C21.6601 28 21.9736 27.6495 21.9736 27.264C22.0088 27.1588 22.0088 27.0889 21.9738 27.0537H21.9738ZM7.38885 5.11653C7.38885 3.11893 8.99019 1.47214 11.0089 1.47214C12.9931 1.47214 14.6289 3.08426 14.6289 5.11653V8.09535H7.38861L7.38885 5.11653ZM3.24652 9.60209H5.92688V11.1088C5.92688 11.5293 6.27507 11.8449 6.65799 11.8449C7.07562 11.8449 7.3891 11.4943 7.3891 11.1088V9.60209H14.5946V11.1088C14.5946 11.5293 14.9428 11.8449 15.3257 11.8449C15.7433 11.8449 16.0568 11.4943 16.0568 11.1088V9.60209H18.7372L20.0947 23.4793H1.88897L3.24652 9.60209ZM1.5755 26.458L1.71463 24.9862H20.2678L20.407 26.458H1.5755Z" fill="#979797"/>
</svg>
