<svg width="21" height="22" viewBox="0 0 21 22" fill="none" xmlns="http://www.w3.org/2000/svg">
<path d="M18.6922 8.26845H18.4V7.97307C18.4 3.57306 14.866 0 10.5144 0C6.16259 0 2.62869 3.57322 2.62869 7.97307V8.26845H2.33655C1.05142 8.26845 0 9.33153 0 10.6309V14.4698C0 15.7692 1.05142 16.8323 2.33655 16.8323H4.965V8.26861H3.79686V7.97323C3.79686 4.22288 6.80509 1.18135 10.5143 1.18135C14.2235 1.18135 17.2317 4.22293 17.2317 7.97323V8.26861H16.0636V16.8323H17.7284C17.4656 17.8362 16.5603 18.6042 15.4503 18.6042H13.7855C13.5227 17.3345 12.4128 16.3894 11.0694 16.3894C9.55063 16.3894 8.29487 17.6591 8.29487 19.1947C8.29487 20.7303 9.55063 22 11.0694 22C12.413 22 13.5227 21.0549 13.7855 19.7853H15.4503C17.2028 19.7853 18.6338 18.4859 18.8966 16.8323C20.0647 16.7142 20.9994 15.7101 20.9994 14.4698V10.6309C21.0283 9.33132 20.0062 8.26845 18.692 8.26845H18.6922ZM3.79702 9.44954V15.6508H2.33671C1.69418 15.6508 1.16857 15.1194 1.16857 14.4697V10.6308C1.16857 9.98113 1.69418 9.4497 2.33671 9.4497H2.62886L3.79702 9.44954ZM11.0986 20.8481C10.1932 20.8481 9.49218 20.1098 9.49218 19.2239C9.49218 18.3379 10.2223 17.5997 11.0986 17.5997C11.9748 17.5997 12.705 18.3379 12.705 19.2239C12.705 20.1098 11.9748 20.8481 11.0986 20.8481ZM19.8604 14.4991C19.8604 15.1488 19.3348 15.6802 18.6923 15.6802H17.232V9.47896H18.6923C19.3348 9.47896 19.8604 10.0104 19.8604 10.6601V14.4991Z" fill="#767676"/>
</svg>
