<svg width="25" height="26" viewBox="0 0 25 26" fill="none" xmlns="http://www.w3.org/2000/svg">
<path d="M12.4998 14.3337C0.54442 14.3337 0.0391076 24.86 0.0356426 24.9663L0 26H25L24.9644 24.9663C24.9605 24.8594 24.4552 14.3337 12.5002 14.3337H12.4998ZM2.18972 24C2.63051 21.6837 4.51485 16.3337 12.4998 16.3337C20.4861 16.3337 22.3693 21.6853 22.81 24.0006L2.18972 24Z" fill="#979797"/>
<path d="M12.5 12.3337C15.942 12.3337 18.7324 9.5728 18.7324 6.16686C18.7324 2.76091 15.9421 0 12.5 0C9.05783 0 6.26758 2.76091 6.26758 6.16686C6.26758 9.5728 9.05783 12.3337 12.5 12.3337ZM12.5 2C14.8219 2 16.711 3.8692 16.711 6.16674C16.711 8.46428 14.8219 10.3335 12.5 10.3335C10.178 10.3335 8.28895 8.46428 8.28895 6.16674C8.28895 3.8692 10.178 2 12.5 2Z" fill="#979797"/>
</svg>
