<svg width="28" height="20" viewBox="0 0 28 20" fill="none" xmlns="http://www.w3.org/2000/svg">
<path fill-rule="evenodd" clip-rule="evenodd" d="M2.1 20H25.9C27.0597 20 28 19.0413 28 17.8571V2.14286C28 0.958694 27.0597 0 25.9 0H2.1C0.94016 0 0 0.958694 0 2.14286V17.8571C0 19.0413 0.94016 20 2.1 20ZM26.6 5.71429V17.8571C26.6 18.2521 26.2869 18.5714 25.9 18.5714H2.1C1.71328 18.5714 1.4 18.2521 1.4 17.8571V2.14286C1.4 1.74793 1.71328 1.42857 2.1 1.42857H25.9C26.2869 1.42857 26.6 1.74793 26.6 2.14286V4.28571H3.5C3.11344 4.28571 2.8 4.60555 2.8 5C2.8 5.39445 3.11344 5.71429 3.5 5.71429H26.6ZM21 15H18.2C17.8131 15 17.5 14.6806 17.5 14.2857V12.8571C17.5 12.4622 17.8131 12.1429 18.2 12.1429H22.4C22.7869 12.1429 23.1 12.4622 23.1 12.8571V14.2857C23.1 14.6802 23.4134 15 23.8 15C24.1866 15 24.5 14.6802 24.5 14.2857V12.8571C24.5 11.673 23.5597 10.7143 22.4 10.7143H18.2C17.0403 10.7143 16.1 11.673 16.1 12.8571V14.2857C16.1 15.4699 17.0403 16.4286 18.2 16.4286H21C21.3866 16.4286 21.7 16.1087 21.7 15.7143C21.7 15.3198 21.3866 15 21 15Z" fill="#979797"/>
</svg>
