<svg width="31" height="21" viewBox="0 0 31 21" fill="none" xmlns="http://www.w3.org/2000/svg">
<path d="M5.81278 9.99974H13.5629V10.9996L5.81278 11V9.99974ZM5.81278 12.9999H11.6251V12H5.81278V12.9999ZM5.81278 8.99985H13.5629V7.99995H5.81278V8.99985ZM20.1017 10.05H20.5862V9.1502H20.1017V10.05ZM20.1017 15.5999H20.5862V14.7001H20.1017V15.5999ZM20.1017 6.35007H20.5862V5.45026H20.1017V6.35007ZM20.1017 8.19995H20.5862V7.30014H20.1017V8.19995ZM20.1017 13.7499H20.5862V12.85H20.1017V13.7499ZM20.1017 11.9H20.5862V11.0002H20.1017V11.9ZM31 3.00013V17.9999C31 19.6498 29.6921 21 28.0936 21H23.2503C22.7174 21 22.2816 20.5501 22.2816 20.0001C22.2816 18.9001 21.4099 18.0003 20.3443 18.0003C19.2787 18.0003 18.407 18.9001 18.407 20.0001C18.407 20.5501 17.9711 21 17.4383 21H2.90639C1.30797 21 0 19.6499 0 17.9999L0.000337869 3.00013C0.000337869 1.35016 1.30822 0 2.90673 0H17.4378C17.9706 0 18.4065 0.449912 18.4065 0.999894C18.4065 2.09988 19.2782 2.99968 20.3438 2.99968C21.4094 2.99968 22.2811 2.09988 22.2811 0.999894C22.2811 0.449886 22.7169 0 23.2497 0H28.0934C29.6919 0 30.9998 1.35007 30.9998 3.00013H31ZM29.5468 17.9999V3.00013C29.5468 2.15019 28.917 1.50006 28.0936 1.50006H23.6858C23.0661 5.59455 17.4771 5.42616 17.001 1.50006H2.90674C2.08335 1.50006 1.45354 2.15016 1.45354 3.00013V17.9999C1.45354 18.8498 2.08332 19.4999 2.90674 19.4999H17.0019C17.6215 15.4054 23.2106 15.5738 23.6866 19.4999H28.0941C28.9175 19.4999 29.547 18.8498 29.547 17.9999H29.5468Z" fill="#3D3D3D"/>
</svg>
