<svg width="16" height="17" viewBox="0 0 16 17" fill="none" xmlns="http://www.w3.org/2000/svg">
<path fill-rule="evenodd" clip-rule="evenodd" d="M5.74832 0H10.0982C10.7101 0 11.2078 0.497781 11.2078 1.10965V2.55176H15.8459V3.88334H14.436L13.3352 16.3919C13.3053 16.7357 13.0172 16.9995 12.6721 16.9995H3.15141C2.80633 16.9995 2.51846 16.7359 2.48828 16.3921L1.38753 3.88334H0V2.55176H4.63867V1.10965C4.63867 0.497781 5.13645 0 5.74832 0ZM5.97025 2.55176H9.87627V1.33158H5.97025V2.55176ZM12.0622 15.668H3.76108L2.72422 3.88334H13.0993L12.0622 15.668ZM6.01382 5.81152L6.30232 13.6901L4.97164 13.7389L4.68311 5.86037L6.01382 5.81152ZM11.1632 5.86131L9.83245 5.8125L9.54395 13.6911L10.8747 13.7397L11.1632 5.86131ZM8.58841 5.83594H7.25684V13.7145H8.58841V5.83594Z" fill="#767676"/>
</svg>
