<svg width="28" height="28" viewBox="0 0 28 28" fill="none" xmlns="http://www.w3.org/2000/svg">
<path fill-rule="evenodd" clip-rule="evenodd" d="M15.2325 17.372V1.232C15.2325 0.90518 15.103 0.592153 14.872 0.3612C14.6411 0.130213 14.327 0 14.0004 0C13.6739 0 13.3598 0.130207 13.1288 0.3612C12.8979 0.592187 12.7684 0.905213 12.7684 1.232V17.372C12.7684 17.372 10.4176 15.0217 9.09943 13.7035C8.86818 13.4725 8.55516 13.3426 8.22837 13.3426C7.90181 13.3426 7.588 13.4725 7.35703 13.7035C6.87578 14.1848 6.87578 14.9647 7.35703 15.446L13.1758 21.2647C13.3945 21.4835 13.6914 21.6067 14.0005 21.6067C14.3096 21.6067 14.6065 21.4835 14.8252 21.2647L20.644 15.446C21.1252 14.9647 21.1252 14.1848 20.644 13.7035C20.413 13.4725 20.0992 13.3426 19.7726 13.3426C19.4458 13.3426 19.1328 13.4725 18.9016 13.7035C17.5834 15.0217 15.2326 17.372 15.2326 17.372H15.2325Z" fill="#979797"/>
<path fill-rule="evenodd" clip-rule="evenodd" d="M0 25.6667C0 26.2858 0.245573 26.879 0.6836 27.3165C1.1211 27.7545 1.71433 28.0001 2.33333 28.0001H25.6667C26.2857 28.0001 26.8789 27.7545 27.3164 27.3165C27.7544 26.879 28 26.2857 28 25.6667V18.6041C28 17.9239 27.4482 17.3721 26.768 17.3721H26.7675C26.4407 17.3721 26.1276 17.5023 25.8967 17.7333C25.6657 17.9643 25.5355 18.2775 25.5355 18.6041V24.3687C25.5355 25.0132 25.0133 25.5353 24.3688 25.5353H3.63148C2.98695 25.5353 2.46481 25.0132 2.46481 24.3687V18.6041C2.46481 18.2775 2.33461 17.9642 2.10361 17.7333C1.87263 17.5023 1.5596 17.3721 1.23281 17.3721H1.23229C0.552092 17.3721 0.000291952 17.9239 0.000291952 18.6041V25.6667H0Z" fill="#979797"/>
</svg>
