<svg width="27" height="28" viewBox="0 0 27 28" fill="none" xmlns="http://www.w3.org/2000/svg">
<path d="M19.7437 0C15.918 0 12.7715 2.93542 12.5087 6.6463L8.30061 5.35471C8.21516 5.33077 8.12499 5.32356 8.03695 5.33379C7.99057 5.33611 0.47466 7.62565 0.47466 7.62565C0.198987 7.71028 -0.00394356 7.98627 5.81617e-05 8.27159V27.3349C0.000764429 27.7506 0.473484 28.0936 0.875314 27.9704L8.1001 25.7618L15.3249 27.9702C15.4544 28.0099 15.5961 28.0099 15.7256 27.9702L23.1505 25.6993C23.4228 25.6156 23.6246 25.3456 23.6251 25.0638V14.0009C23.9196 13.6531 24.2131 13.2985 24.49 12.9383C25.8526 11.1657 26.9638 9.2405 27 7.16744V7.14652C27 3.20035 23.7409 0.000826047 19.7439 0.000826047L19.7437 0ZM19.7437 1.33343C23.0087 1.33343 25.644 3.91778 25.6499 7.13569V7.14615C25.6181 8.74487 24.6986 10.4543 23.4139 12.1253C22.2843 13.5948 20.9302 15.0101 19.7437 16.3338C18.5568 15.0089 17.2022 13.6069 16.0736 12.1358C14.7915 10.4648 13.8694 8.74535 13.8376 7.14615V7.13569C13.8435 3.91659 16.4787 1.33343 19.7437 1.33343ZM19.7437 3.66689C17.7947 3.66689 16.2 5.24192 16.2 7.16712C16.2 9.09232 17.7945 10.6673 19.7437 10.6673C21.6928 10.6673 23.2875 9.09232 23.2875 7.16712C23.2875 5.24192 21.693 3.66689 19.7437 3.66689ZM19.7437 5.00032C20.9632 5.00032 21.9373 5.96244 21.9373 7.16706C21.9373 8.37168 20.9632 9.3338 19.7437 9.3338C18.5243 9.3338 17.5501 8.37168 17.5501 7.16706C17.5501 5.96244 18.5243 5.00032 19.7437 5.00032ZM7.42518 6.90665V24.5634L1.35028 26.4177V8.7609L7.42518 6.90665ZM8.77503 6.90665L12.5718 8.06293C12.8428 9.71981 13.7562 11.273 14.85 12.7296C14.8516 12.732 14.8483 12.7378 14.85 12.7401V26.4178L8.77509 24.5635L8.77503 6.90665ZM16.1999 14.3964C17.2515 15.6096 18.3436 16.7424 19.2269 17.761C19.4795 18.0507 19.9974 18.0507 20.2501 17.761C20.853 17.0658 21.5534 16.3222 22.2752 15.5317V24.5631L16.2003 26.4173L16.1999 14.3964Z" fill="#979797"/>
</svg>
