<svg width="24" height="24" viewBox="0 0 24 24" fill="none" xmlns="http://www.w3.org/2000/svg">
<mask id="path-1-outside-1_3988_1312" maskUnits="userSpaceOnUse" x="0" y="0" width="24" height="24" fill="black">
<rect fill="white" width="24" height="24"/>
<path d="M11.9984 1.00043C11.8023 1.00043 11.6435 1.1592 11.6435 1.35527C11.6435 1.55135 11.8023 1.71012 11.9984 1.71012C14.3734 1.70781 16.6765 2.52625 18.5174 4.02686C20.3583 5.52747 21.6243 7.61808 22.1008 9.94463C22.5775 12.2714 22.2355 14.6912 21.1328 16.7949C20.0301 18.8984 18.2344 20.5564 16.05 21.4882C13.8652 22.4199 11.4255 22.5681 9.14435 21.9077C6.86293 21.2474 4.87989 19.8191 3.53037 17.8645C2.18111 15.9098 1.54869 13.5493 1.73996 11.182C1.93141 8.81472 2.93488 6.58624 4.58071 4.87378V5.07959C4.57807 5.27501 4.73305 5.43642 4.92846 5.44154C5.12272 5.44154 5.28083 5.28557 5.28331 5.09148L5.30229 4.03138C5.30179 3.96735 5.28463 3.90463 5.25261 3.84917C5.25376 3.84373 5.25376 3.83811 5.25261 3.83267C5.24848 3.82458 5.24287 3.81732 5.2361 3.81138C5.2295 3.79883 5.22059 3.78761 5.21003 3.7782C5.20342 3.77127 5.19633 3.765 5.18873 3.75922L5.16035 3.73315L5.13674 3.72143L5.09416 3.69783C5.05076 3.67901 5.00405 3.66861 4.95685 3.66696L3.89675 3.65046H3.89692C3.80251 3.64798 3.71108 3.6833 3.64308 3.74866C3.57508 3.81402 3.53613 3.90397 3.53481 3.99821C3.53217 4.19461 3.68863 4.35636 3.88504 4.36031H4.08623H4.08606C2.32421 6.1852 1.24726 8.56304 1.03769 11.091C0.827919 13.619 1.49832 16.1418 2.93538 18.2319C4.37261 20.3223 6.48781 21.8517 8.92328 22.561C11.3587 23.2704 13.9647 23.1164 16.2996 22.125C18.6343 21.1336 20.5547 19.3655 21.7357 17.1203C22.9164 14.8752 23.2849 12.2909 22.7789 9.80528C22.2727 7.31953 20.9231 5.08535 18.9586 3.48064C16.9939 1.87592 14.5348 0.999493 11.9985 1L11.9984 1.00043Z"/>
</mask>
<path d="M11.9984 1.00043C11.8023 1.00043 11.6435 1.1592 11.6435 1.35527C11.6435 1.55135 11.8023 1.71012 11.9984 1.71012C14.3734 1.70781 16.6765 2.52625 18.5174 4.02686C20.3583 5.52747 21.6243 7.61808 22.1008 9.94463C22.5775 12.2714 22.2355 14.6912 21.1328 16.7949C20.0301 18.8984 18.2344 20.5564 16.05 21.4882C13.8652 22.4199 11.4255 22.5681 9.14435 21.9077C6.86293 21.2474 4.87989 19.8191 3.53037 17.8645C2.18111 15.9098 1.54869 13.5493 1.73996 11.182C1.93141 8.81472 2.93488 6.58624 4.58071 4.87378V5.07959C4.57807 5.27501 4.73305 5.43642 4.92846 5.44154C5.12272 5.44154 5.28083 5.28557 5.28331 5.09148L5.30229 4.03138C5.30179 3.96735 5.28463 3.90463 5.25261 3.84917C5.25376 3.84373 5.25376 3.83811 5.25261 3.83267C5.24848 3.82458 5.24287 3.81732 5.2361 3.81138C5.2295 3.79883 5.22059 3.78761 5.21003 3.7782C5.20342 3.77127 5.19633 3.765 5.18873 3.75922L5.16035 3.73315L5.13674 3.72143L5.09416 3.69783C5.05076 3.67901 5.00405 3.66861 4.95685 3.66696L3.89675 3.65046H3.89692C3.80251 3.64798 3.71108 3.6833 3.64308 3.74866C3.57508 3.81402 3.53613 3.90397 3.53481 3.99821C3.53217 4.19461 3.68863 4.35636 3.88504 4.36031H4.08623H4.08606C2.32421 6.1852 1.24726 8.56304 1.03769 11.091C0.827919 13.619 1.49832 16.1418 2.93538 18.2319C4.37261 20.3223 6.48781 21.8517 8.92328 22.561C11.3587 23.2704 13.9647 23.1164 16.2996 22.125C18.6343 21.1336 20.5547 19.3655 21.7357 17.1203C22.9164 14.8752 23.2849 12.2909 22.7789 9.80528C22.2727 7.31953 20.9231 5.08535 18.9586 3.48064C16.9939 1.87592 14.5348 0.999493 11.9985 1L11.9984 1.00043Z" fill="#767676"/>
<path d="M11.9984 1.00043V1.20043H12.1501L12.191 1.05434L11.9984 1.00043ZM11.9984 1.71012V1.91012L11.9986 1.91012L11.9984 1.71012ZM22.1008 9.94462L21.9049 9.98475L21.9049 9.98476L22.1008 9.94462ZM21.1328 16.7949L21.31 16.8877L21.31 16.8877L21.1328 16.7949ZM16.05 21.4882L16.1284 21.6722L16.1284 21.6722L16.05 21.4882ZM9.14435 21.9077L9.19996 21.7156L9.19995 21.7156L9.14435 21.9077ZM3.53037 17.8645L3.36578 17.9781L3.36579 17.9781L3.53037 17.8645ZM1.73996 11.182L1.54061 11.1658L1.54061 11.1658L1.73996 11.182ZM4.58071 4.87378H4.78071V4.37706L4.43651 4.73519L4.58071 4.87378ZM4.58071 5.0796L4.78071 5.0823V5.0796H4.58071ZM4.92846 5.44154L4.92322 5.64154H4.92846V5.44154ZM5.28331 5.09148L5.08334 5.0879L5.08332 5.08893L5.28331 5.09148ZM5.30229 4.03138L5.50232 4.03496L5.50228 4.02984L5.30229 4.03138ZM5.25261 3.84917L5.05696 3.80767L5.04104 3.88273L5.0794 3.94918L5.25261 3.84917ZM5.25261 3.83267L5.44825 3.79117L5.44277 3.76532L5.43076 3.74178L5.25261 3.83267ZM5.2361 3.81138L5.05912 3.90453L5.07634 3.93726L5.10414 3.96166L5.2361 3.81138ZM5.21002 3.7782L5.0652 3.91613L5.07087 3.92209L5.07701 3.92755L5.21002 3.7782ZM5.18873 3.75922L5.05344 3.90651L5.06026 3.91278L5.06763 3.91839L5.18873 3.75922ZM5.16035 3.73314L5.29564 3.58586L5.27473 3.56664L5.24929 3.55401L5.16035 3.73314ZM5.13674 3.72143L5.03969 3.89653L5.0478 3.90056L5.13674 3.72143ZM5.09416 3.69783L5.19112 3.5229L5.18262 3.51819L5.17371 3.51432L5.09416 3.69783ZM4.95685 3.66696L4.96383 3.46705L4.95996 3.46699L4.95685 3.66696ZM3.89675 3.65046V3.45046L3.89364 3.85043L3.89675 3.65046ZM3.89692 3.65046V3.85046L3.90216 3.45053L3.89692 3.65046ZM3.53481 3.99821L3.33483 3.9954L3.33483 3.99552L3.53481 3.99821ZM3.88504 4.36031L3.881 4.56031H3.88504V4.36031ZM4.08606 4.36031V4.16031H4.00115L3.94218 4.2214L4.08606 4.36031ZM1.03769 11.091L1.23701 11.1075L1.23701 11.1075L1.03769 11.091ZM2.93538 18.2319L2.77057 18.3453L2.77058 18.3453L2.93538 18.2319ZM8.92328 22.561L8.97921 22.369H8.97921L8.92328 22.561ZM16.2996 22.125L16.3777 22.3091L16.3777 22.3091L16.2996 22.125ZM21.7357 17.1203L21.9127 17.2134L21.9127 17.2134L21.7357 17.1203ZM22.7789 9.80528L22.9749 9.76538L22.9749 9.76537L22.7789 9.80528ZM18.9586 3.48064L19.0851 3.32574L19.0851 3.32574L18.9586 3.48064ZM11.9985 1L11.9984 0.8L11.8468 0.800031L11.8059 0.94609L11.9985 1ZM11.9984 0.800429C11.6918 0.800429 11.4435 1.04874 11.4435 1.35527H11.8435C11.8435 1.26966 11.9127 1.20043 11.9984 1.20043V0.800429ZM11.4435 1.35527C11.4435 1.6618 11.6918 1.91012 11.9984 1.91012V1.51012C11.9127 1.51012 11.8435 1.44089 11.8435 1.35527H11.4435ZM11.9986 1.91012C14.3275 1.90785 16.5858 2.71041 18.391 4.18188L18.6437 3.87184C16.7671 2.3421 14.4193 1.50777 11.9982 1.51012L11.9986 1.91012ZM18.391 4.18188C20.1962 5.65337 21.4377 7.70339 21.9049 9.98475L22.2967 9.9045C21.811 7.53277 20.5204 5.40157 18.6437 3.87184L18.391 4.18188ZM21.9049 9.98476C22.3723 12.2664 22.0369 14.6392 20.9557 16.702L21.31 16.8877C22.434 14.7432 22.7826 12.2765 22.2967 9.90449L21.9049 9.98476ZM20.9557 16.702C19.8744 18.7647 18.1136 20.3905 15.9715 21.3042L16.1284 21.6722C18.3553 20.7223 20.1859 19.0321 21.31 16.8877L20.9557 16.702ZM15.9715 21.3042C13.8292 22.2178 11.4368 22.3632 9.19996 21.7156L9.08873 22.0998C11.4142 22.773 13.9013 22.6219 16.1284 21.6722L15.9715 21.3042ZM9.19995 21.7156C6.96283 21.0681 5.01829 19.6675 3.69496 17.7508L3.36579 17.9781C4.7415 19.9706 6.76303 21.4267 9.08874 22.0999L9.19995 21.7156ZM3.69497 17.7509C2.3719 15.8342 1.75175 13.5195 1.93931 11.1981L1.54061 11.1658C1.34563 13.5792 1.99033 15.9855 3.36578 17.9781L3.69497 17.7509ZM1.93931 11.1981C2.12704 8.8768 3.11103 6.69158 4.72491 5.01237L4.43651 4.73519C2.75873 6.4809 1.73578 8.75264 1.54061 11.1658L1.93931 11.1981ZM4.38071 4.87378V5.0796H4.78071V4.87378H4.38071ZM4.38073 5.07689C4.37661 5.38167 4.61828 5.63349 4.92322 5.64147L4.93369 5.24161C4.84781 5.23936 4.77953 5.16835 4.78069 5.0823L4.38073 5.07689ZM4.92846 5.64154C5.23202 5.64154 5.47942 5.39773 5.48329 5.09403L5.08332 5.08893C5.08224 5.17341 5.01341 5.24154 4.92846 5.24154V5.64154ZM5.48327 5.09506L5.50225 4.03496L5.10232 4.0278L5.08334 5.0879L5.48327 5.09506ZM5.50228 4.02984C5.50152 3.93101 5.47502 3.8344 5.42581 3.74917L5.0794 3.94918C5.09423 3.97486 5.10207 4.00368 5.10229 4.03293L5.50228 4.02984ZM5.44825 3.89067C5.45521 3.85786 5.45521 3.82398 5.44825 3.79117L5.05696 3.87417C5.05231 3.85225 5.05231 3.82959 5.05696 3.80767L5.44825 3.89067ZM5.43076 3.74178C5.41537 3.71162 5.39424 3.68408 5.36807 3.66109L5.10414 3.96166C5.0915 3.95056 5.08159 3.93754 5.07445 3.92356L5.43076 3.74178ZM5.41309 3.71823C5.39487 3.68361 5.37077 3.65355 5.34304 3.62885L5.07701 3.92755C5.0704 3.92167 5.06414 3.91406 5.05912 3.90453L5.41309 3.71823ZM5.35485 3.64027C5.34036 3.62505 5.32522 3.61176 5.30984 3.60006L5.06763 3.91839C5.06743 3.91824 5.06649 3.91749 5.0652 3.91613L5.35485 3.64027ZM5.32403 3.61193L5.29564 3.58586L5.02505 3.88044L5.05344 3.90651L5.32403 3.61193ZM5.24929 3.55401L5.22569 3.54229L5.0478 3.90056L5.0714 3.91228L5.24929 3.55401ZM5.2337 3.5465L5.19112 3.5229L4.99721 3.87275L5.03979 3.89635L5.2337 3.5465ZM5.17371 3.51432C5.107 3.48541 5.03565 3.4696 4.96383 3.46708L4.94986 3.86684C4.97245 3.86763 4.99452 3.87261 5.01462 3.88133L5.17371 3.51432ZM4.95996 3.46699L3.89987 3.45048L3.89364 3.85043L4.95373 3.86694L4.95996 3.46699ZM3.89675 3.85046H3.89692V3.45046H3.89675V3.85046ZM3.90216 3.45053C3.75448 3.44665 3.61119 3.5019 3.50449 3.60446L3.78167 3.89285C3.81096 3.8647 3.85054 3.84931 3.89167 3.85039L3.90216 3.45053ZM3.50449 3.60446C3.39786 3.70695 3.3369 3.84786 3.33483 3.9954L3.73479 4.00101C3.73536 3.96008 3.7523 3.92108 3.78167 3.89285L3.50449 3.60446ZM3.33483 3.99552C3.33071 4.3019 3.57474 4.5541 3.88101 4.56027L3.88907 4.16036C3.80252 4.15861 3.73363 4.08732 3.73479 4.00089L3.33483 3.99552ZM3.88504 4.56031H4.08623V4.16031H3.88504V4.56031ZM4.08623 4.16031H4.08606V4.56031H4.08623V4.16031ZM3.94218 4.2214C2.14829 6.07947 1.05175 8.50055 0.838374 11.0745L1.23701 11.1075C1.44276 8.62553 2.50013 6.29094 4.22995 4.49923L3.94218 4.2214ZM0.838375 11.0745C0.624791 13.6484 1.30738 16.2171 2.77057 18.3453L3.10019 18.1186C1.68926 16.0665 1.03105 13.5896 1.23701 11.1075L0.838375 11.0745ZM2.77058 18.3453C4.23393 20.4736 6.38759 22.0308 8.86735 22.7531L8.97921 22.369C6.58804 21.6726 4.51129 20.171 3.10018 18.1186L2.77058 18.3453ZM8.86735 22.7531C11.347 23.4753 14.0005 23.3186 16.3777 22.3091L16.2214 21.9409C13.929 22.9143 11.3704 23.0655 8.97921 22.369L8.86735 22.7531ZM16.3777 22.3091C18.7549 21.2996 20.7103 19.4994 21.9127 17.2134L21.5587 17.0272C20.3992 19.2316 18.5137 20.9675 16.2214 21.9409L16.3777 22.3091ZM21.9127 17.2134C23.1149 14.9275 23.4901 12.2962 22.9749 9.76538L22.5829 9.84518C23.0798 12.2857 22.7179 14.8229 21.5587 17.0272L21.9127 17.2134ZM22.9749 9.76537C22.4595 7.23443 21.0854 4.95963 19.0851 3.32574L18.8321 3.63553C20.7609 5.21107 22.0859 7.40463 22.5829 9.84519L22.9749 9.76537ZM19.0851 3.32574C17.0847 1.69185 14.5809 0.799484 11.9984 0.8L11.9985 1.2C14.4888 1.1995 16.9031 2.05999 18.8321 3.63553L19.0851 3.32574ZM11.8059 0.94609L11.8058 0.946519L12.191 1.05434L12.1911 1.05391L11.8059 0.94609Z" fill="#767676" mask="url(#path-1-outside-1_3988_1312)"/>
<path d="M11.9567 20.5403L11.9569 20.5406H11.9984C14.2626 20.5406 16.4343 19.6411 18.0354 18.0401C19.6365 16.439 20.5359 14.2673 20.5359 12.003C20.5359 9.73866 19.6365 7.56701 18.0354 5.96593C16.4344 4.36485 14.2627 3.46543 11.9984 3.46543C9.73402 3.46543 7.56237 4.3649 5.96129 5.96593C4.36021 7.56697 3.46079 9.73866 3.46079 12.003L3.46079 12.0031C3.4633 14.2666 4.36358 16.4365 5.96412 18.0371C7.55489 19.628 9.70814 20.5269 11.9567 20.5403ZM11.5435 4.39034V5.23116C11.5435 5.4824 11.747 5.68617 11.9984 5.68617C12.2497 5.68617 12.4532 5.4824 12.4532 5.23116V4.39034C14.3134 4.50338 16.0694 5.29308 17.389 6.61251C18.7085 7.93195 19.4981 9.68796 19.6112 11.5483H18.7704C18.5191 11.5483 18.3154 11.7518 18.3154 12.0032C18.3154 12.2545 18.5191 12.458 18.7704 12.458H19.6112C19.4982 14.3182 18.7085 16.0742 17.389 17.3938C17.389 17.3938 17.389 17.3939 17.389 17.3939L11.5435 4.39034ZM12.4532 19.616V18.7752C12.4532 18.524 12.2497 18.3202 11.9984 18.3202C11.747 18.3202 11.5435 18.524 11.5435 18.7752V19.616C9.68334 19.503 7.92733 18.7133 6.60768 17.3938C5.28825 16.0744 4.49857 14.3184 4.38551 12.458H5.22633C5.47757 12.458 5.68134 12.2545 5.68134 12.0032C5.68134 11.7518 5.47757 11.5483 5.22633 11.5483H4.38551C4.49856 9.68817 5.28825 7.93216 6.60769 6.61251C6.60769 6.61251 6.60769 6.61251 6.60769 6.61251L12.4532 19.616Z" fill="#767676" stroke="#767676" stroke-width="0.2"/>
<path d="M14.3497 14.0506L11.7584 12.3883L11.7534 12.3851C11.5555 12.261 11.4855 12.0062 11.5919 11.7983C11.592 11.7982 11.592 11.7981 11.5921 11.798L14.3695 6.29283L14.3701 6.29166L14.3701 6.29166C14.4845 6.07202 14.753 5.98329 14.9758 6.09165L14.9772 6.0923L14.9772 6.09231C15.2 6.20477 15.2898 6.47669 15.1776 6.69979L15.1776 6.69973L15.0882 6.65492L15.1776 6.69988L14.3497 14.0506ZM14.3497 14.0506H14.3487L14.6368 14.2348C14.8486 14.3704 15.1303 14.3087 15.2659 14.0969L15.2659 14.0969C15.4014 13.8851 15.3397 13.6034 15.128 13.4678L15.1282 13.4679L15.074 13.552L15.128 13.4678L14.3497 14.0506ZM12.6009 11.8413L12.5254 11.7927L12.4712 11.8768L12.5607 11.9216L12.6009 11.8413Z" fill="#767676" stroke="#767676" stroke-width="0.2"/>
</svg>
