<svg width="28" height="28" viewBox="0 0 28 28" fill="none" xmlns="http://www.w3.org/2000/svg">
<path d="M9 12H1C0.734823 12 0.480354 12.1054 0.292857 12.2929C0.10536 12.4804 0 12.7348 0 13V25C0 25.7958 0.316069 26.5587 0.878571 27.1214C1.4413 27.6839 2.20423 28 3 28H9C9.26518 28 9.51965 27.8946 9.70714 27.7071C9.89464 27.5196 10 27.2652 10 27V13C10 12.7348 9.89464 12.4804 9.70714 12.2929C9.51965 12.1054 9.26518 12 9 12ZM8 26H3C2.73482 26 2.48035 25.8946 2.29286 25.7071C2.10536 25.5196 2 25.2652 2 25V14H8V26ZM28 3V9C28 9.26518 27.8946 9.51965 27.7071 9.70714C27.5196 9.89464 27.2652 10 27 10H1C0.734823 10 0.480354 9.89464 0.292857 9.70714C0.10536 9.51965 0 9.26518 0 9V3C0 2.20423 0.316069 1.44131 0.878571 0.878571C1.4413 0.316069 2.20423 0 3 0H16C16.3574 0 16.6875 0.190623 16.8661 0.5C17.0446 0.809377 17.0446 1.19063 16.8661 1.5C16.6875 1.80937 16.3574 2 16 2H3C2.73482 2 2.48035 2.10536 2.29286 2.29286C2.10536 2.48035 2 2.73482 2 3V8H26V3C26 2.73482 25.8946 2.48035 25.7071 2.29286C25.5196 2.10536 25.2652 2 25 2H20C19.6426 2 19.3125 1.80938 19.1339 1.5C18.9554 1.19062 18.9554 0.809371 19.1339 0.5C19.3125 0.190629 19.6426 0 20 0H25C25.7958 0 26.5587 0.316069 27.1214 0.878571C27.6839 1.4413 28 2.20423 28 3ZM28 13V17C28 17.3574 27.8094 17.6875 27.5 17.8661C27.1906 18.0446 26.8094 18.0446 26.5 17.8661C26.1906 17.6875 26 17.3574 26 17V14H14V26H25C25.2652 26 25.5196 25.8946 25.7071 25.7071C25.8946 25.5196 26 25.2652 26 25V21C26 20.6426 26.1906 20.3125 26.5 20.1339C26.8094 19.9554 27.1906 19.9554 27.5 20.1339C27.8094 20.3125 28 20.6426 28 21V25C28 25.7958 27.6839 26.5587 27.1214 27.1214C26.5587 27.6839 25.7958 28 25 28H13C12.7348 28 12.4804 27.8946 12.2929 27.7071C12.1054 27.5196 12 27.2652 12 27V13C12 12.7348 12.1054 12.4804 12.2929 12.2929C12.4804 12.1054 12.7348 12 13 12H27C27.2652 12 27.5196 12.1054 27.7071 12.2929C27.8946 12.4804 28 12.7348 28 13Z" fill="#979797"/>
</svg>
