<svg width="35" height="17" viewBox="0 0 35 17" fill="none" xmlns="http://www.w3.org/2000/svg">
<path d="M34.8509 0.204799C34.7376 0.0747406 34.5719 4.72491e-05 34.3974 4.72491e-05H15.3843C15.0888 -0.00360899 14.8349 0.20532 14.7875 0.491297L12.2694 16.3272C12.243 16.497 12.2942 16.6693 12.409 16.7989C12.5238 16.9284 12.6909 17.002 12.8661 17H31.8732C32.1686 17.0036 32.4225 16.7947 32.4699 16.5087L34.9942 0.672802C35.0184 0.503833 34.966 0.332771 34.8509 0.204799ZM23.9305 1.17009H25.6669L25.1895 4.17113H23.4651L23.9305 1.17009ZM31.3665 15.83H13.5591L15.8923 1.17009H22.7193L22.1644 4.68012C22.1385 4.8483 22.1886 5.0191 22.3016 5.14812C22.415 5.27792 22.5808 5.35287 22.755 5.35287H25.7031C26.0007 5.356 26.2554 5.14394 26.2999 4.85562L26.8966 1.18186H33.7056L31.3665 15.83ZM11.7327 3.23465H0.596761C0.267213 3.23465 0 2.97271 0 2.64965C0 2.32659 0.267213 2.06465 0.596761 2.06465H11.7327C12.0622 2.06465 12.3294 2.32659 12.3294 2.64965C12.3294 2.97271 12.0622 3.23465 11.7327 3.23465ZM10.5035 5.51042H10.5032C10.8328 5.51042 11.1 5.77211 11.1 6.09543C11.1 6.41848 10.8328 6.68043 10.5032 6.68043H5.72912C5.39957 6.68043 5.13236 6.41848 5.13236 6.09543C5.13236 5.77211 5.39957 5.51042 5.72912 5.51042H10.5035ZM12.3294 10.4654V10.4652C12.3294 10.6203 12.2666 10.7692 12.1547 10.8789C12.0425 10.9885 11.8909 11.0502 11.7327 11.0502H3.77153C3.44198 11.0502 3.17477 10.7885 3.17477 10.4652C3.17477 10.1421 3.44198 9.88017 3.77153 9.88017H11.7327C11.8952 9.88017 12.0505 9.94494 12.1632 10.0599C12.2759 10.1748 12.3358 10.3296 12.3294 10.4887V10.4654ZM9.90644 13.7647C9.90644 13.9199 9.84357 14.0687 9.73168 14.1784C9.61979 14.2881 9.46793 14.3497 9.30968 14.3497H6.92264C6.59309 14.3497 6.32588 14.0878 6.32588 13.7647C6.32588 13.4417 6.59309 13.1797 6.92264 13.1797H9.30968C9.46793 13.1797 9.61979 13.2414 9.73168 13.351C9.84357 13.4607 9.90644 13.6096 9.90644 13.7647Z" fill="#767676"/>
</svg>
