<svg width="31" height="22" viewBox="0 0 31 22" fill="none" xmlns="http://www.w3.org/2000/svg">
<path d="M30.0378 10.353L28.2356 5.03133C28.1359 4.73296 27.945 4.47326 27.69 4.28908C27.4348 4.10491 27.1284 4.00568 26.8137 4.00502H21.0264V1.50186C21.0264 1.1036 20.8682 0.721394 20.5866 0.43984C20.305 0.158285 19.9228 0 19.5246 0H1.50186C1.1036 0 0.721394 0.158234 0.43984 0.43984C0.158285 0.721446 0 1.10365 0 1.50186V3.50438C0 3.78085 0.224168 4.00502 0.50063 4.00502C0.777093 4.00502 1.00126 3.78085 1.00126 3.50438V1.50186C1.00126 1.2254 1.22543 1.00123 1.50189 1.00123H19.5246C19.6573 1.00123 19.7847 1.05398 19.8786 1.14785C19.9725 1.24171 20.0252 1.36911 20.0252 1.50186V16.0201H8.95642C8.30183 15.3809 7.42301 15.0233 6.50825 15.0233C5.5935 15.0233 4.71468 15.3809 4.06009 16.0201H1.00132V5.50691C1.00132 5.23044 0.77715 5.00628 0.500688 5.00628C0.224225 5.00628 5.71835e-05 5.23044 5.71835e-05 5.50691V18.5233C5.71835e-05 18.6561 0.0528025 18.7835 0.14667 18.8773C0.240538 18.9712 0.367932 19.0239 0.500688 19.0239H3.04383C3.21369 20.1376 3.90852 21.1017 4.91139 21.6151C5.91396 22.1283 7.10254 22.1283 8.10512 21.6151C9.10793 21.1018 9.8028 20.1376 9.97267 19.0239H16.5209C16.7974 19.0239 17.0216 18.7998 17.0216 18.5233C17.0216 18.2468 16.7974 18.0227 16.5209 18.0227H9.97267C9.9235 17.6751 9.82047 17.3372 9.66716 17.0214H21.3722C21.2189 17.3372 21.1158 17.6751 21.0667 18.0227H18.5235C18.2471 18.0227 18.0229 18.2468 18.0229 18.5233C18.0229 18.7998 18.2471 19.0239 18.5235 19.0239H21.0667C21.2365 20.1376 21.9314 21.1017 22.9342 21.6151C23.9368 22.1283 25.1254 22.1283 26.128 21.6151C27.1308 21.1018 27.8256 20.1376 27.9955 19.0239H29.5374C29.6701 19.0239 29.7975 18.9712 29.8914 18.8773C29.9853 18.7835 30.038 18.6561 30.038 18.5233V10.5132C30.0452 10.46 30.0452 10.4062 30.038 10.353L30.0378 10.353ZM21.0265 5.00632H26.8138C27.029 5.00588 27.2205 5.14288 27.2894 5.3467L29.0367 10.5933V16.0202H26.9792C26.3246 15.381 25.4457 15.0234 24.531 15.0234C23.6162 15.0234 22.7374 15.381 22.0828 16.0202H21.0266L21.0265 5.00632ZM1.00127 17.0215H3.34932C3.196 17.3373 3.09296 17.6752 3.0438 18.0227H1.00128L1.00127 17.0215ZM6.50821 21.0265C5.8444 21.0265 5.20771 20.7628 4.73809 20.2935C4.26875 19.8239 4.00506 19.1872 4.00506 18.5233C4.00506 17.8595 4.26878 17.2229 4.73809 16.7532C5.20766 16.2839 5.8444 16.0202 6.50821 16.0202C7.17202 16.0202 7.8087 16.2839 8.27832 16.7532C8.74766 17.2228 9.01136 17.8595 9.01136 18.5233C9.01136 19.1872 8.74763 19.8238 8.27832 20.2935C7.80876 20.7628 7.17202 21.0265 6.50821 21.0265ZM24.5309 21.0265C23.8671 21.0265 23.2304 20.7628 22.7608 20.2935C22.2915 19.8239 22.0278 19.1872 22.0278 18.5233C22.0278 17.8595 22.2915 17.2229 22.7608 16.7532C23.2304 16.2839 23.8671 16.0202 24.5309 16.0202C25.1947 16.0202 25.8314 16.2839 26.301 16.7532C26.7704 17.2228 27.0341 17.8595 27.0341 18.5233C27.0341 19.1872 26.7703 19.8238 26.301 20.2935C25.8315 20.7628 25.1947 21.0265 24.5309 21.0265ZM29.0366 18.0227H27.9953C27.9462 17.6752 27.8431 17.3373 27.6898 17.0215H29.0366L29.0366 18.0227Z" fill="#767676"/>
<path d="M24.5309 17.0215C24.1326 17.0215 23.7504 17.1797 23.4689 17.4613C23.1873 17.7429 23.0291 18.1251 23.0291 18.5233C23.0291 18.9216 23.1873 19.3038 23.4689 19.5854C23.7505 19.8669 24.1327 20.0252 24.5309 20.0252C24.9291 20.0252 25.3114 19.867 25.5929 19.5854C25.8745 19.3038 26.0328 18.9216 26.0328 18.5233C26.0328 18.1251 25.8745 17.7429 25.5929 17.4613C25.3113 17.1798 24.9291 17.0215 24.5309 17.0215ZM24.5309 19.024C24.3284 19.024 24.1458 18.902 24.0685 18.7149C23.991 18.5278 24.0336 18.3126 24.1769 18.1694C24.3202 18.0261 24.5354 17.9834 24.7225 18.061C24.9095 18.1383 25.0315 18.3209 25.0315 18.5234C25.0315 18.6561 24.9788 18.7835 24.8849 18.8774C24.7911 18.9713 24.6637 19.024 24.5309 19.024Z" fill="#767676"/>
<path d="M22.5285 13.0159H23.5297C23.8062 13.0159 24.0304 12.7917 24.0304 12.5153C24.0304 12.2388 23.8062 12.0146 23.5297 12.0146H22.5285C22.252 12.0146 22.0278 12.2388 22.0278 12.5153C22.0278 12.7917 22.252 13.0159 22.5285 13.0159Z" fill="#767676"/>
<path d="M6.50821 17.0215C6.10994 17.0215 5.72774 17.1797 5.44619 17.4613C5.16463 17.7429 5.00635 18.1251 5.00635 18.5233C5.00635 18.9216 5.16458 19.3038 5.44619 19.5854C5.72779 19.8669 6.10999 20.0252 6.50821 20.0252C6.90643 20.0252 7.28868 19.867 7.57023 19.5854C7.85179 19.3038 8.01007 18.9216 8.01007 18.5233C8.01007 18.1251 7.85184 17.7429 7.57023 17.4613C7.28863 17.1798 6.90643 17.0215 6.50821 17.0215ZM6.50821 19.024C6.30572 19.024 6.12313 18.902 6.0458 18.7149C5.96824 18.5278 6.01093 18.3126 6.15419 18.1694C6.29745 18.0261 6.51268 17.9834 6.69975 18.061C6.88681 18.1383 7.00884 18.3209 7.00884 18.5234C7.00884 18.6561 6.9561 18.7835 6.86223 18.8774C6.76836 18.9713 6.64097 19.024 6.50821 19.024Z" fill="#767676"/>
<path d="M7.50936 3.50488C6.97834 3.50488 6.46896 3.71586 6.09329 4.09134C5.71782 4.46703 5.50684 4.97639 5.50684 5.50741C5.50684 6.03842 5.71782 6.5478 6.09329 6.92347C6.46898 7.29895 6.97835 7.50993 7.50936 7.50993C8.04037 7.50993 8.54975 7.29895 8.92543 6.92347C9.3009 6.54778 9.51188 6.03842 9.51188 5.50741C9.51188 4.97639 9.3009 4.46701 8.92543 4.09134C8.54973 3.71586 8.04037 3.50488 7.50936 3.50488ZM7.50936 6.50867C7.24385 6.50867 6.98906 6.40317 6.80132 6.21544C6.61359 6.02771 6.5081 5.77292 6.5081 5.50741C6.5081 5.24189 6.61359 4.9871 6.80132 4.79937C6.98906 4.61164 7.24385 4.50614 7.50936 4.50614C7.77487 4.50614 8.02966 4.61164 8.21739 4.79937C8.40513 4.9871 8.51062 5.24189 8.51062 5.50741C8.51062 5.77292 8.40513 6.02771 8.21739 6.21544C8.02966 6.40317 7.77487 6.50867 7.50936 6.50867Z" fill="#767676"/>
<path d="M11.5144 11.5142C11.5144 12.0453 11.7254 12.5546 12.1009 12.9303C12.4766 13.3058 12.9859 13.5168 13.5169 13.5168C14.0479 13.5168 14.5573 13.3058 14.933 12.9303C15.3085 12.5546 15.5194 12.0453 15.5194 11.5142C15.5194 10.9832 15.3085 10.4738 14.933 10.0982C14.5573 9.7227 14.0479 9.51172 13.5169 9.51172C12.9859 9.51172 12.4765 9.7227 12.1009 10.0982C11.7254 10.4739 11.5144 10.9832 11.5144 11.5142ZM14.5182 11.5142C14.5182 11.7798 14.4127 12.0345 14.225 12.2223C14.0372 12.41 13.7824 12.5155 13.5169 12.5155C13.2514 12.5155 12.9966 12.41 12.8089 12.2223C12.6212 12.0345 12.5157 11.7798 12.5157 11.5142C12.5157 11.2487 12.6212 10.9939 12.8089 10.8062C12.9966 10.6185 13.2514 10.513 13.5169 10.513C13.7824 10.513 14.0372 10.6185 14.225 10.8062C14.4127 10.9939 14.5182 11.2487 14.5182 11.5142Z" fill="#767676"/>
<path d="M13.1017 3.72962L7.09417 12.741C6.94331 12.9707 7.00589 13.2791 7.2343 13.4318C7.31499 13.4883 7.41131 13.518 7.50965 13.5169C7.67705 13.516 7.83304 13.4316 7.92513 13.2916L13.9327 4.2803C14.0549 4.05256 13.9836 3.76917 13.7682 3.62633C13.5525 3.48352 13.2638 3.52822 13.1018 3.72959L13.1017 3.72962Z" fill="#767676"/>
<path d="M22.5284 11.0138H27.4245C27.5857 11.0131 27.7365 10.9349 27.8302 10.8035C27.9245 10.6734 27.9507 10.5058 27.9001 10.3529L26.5686 6.3479C26.4968 6.1349 26.2923 5.99589 26.068 6.00751H22.5285C22.252 6.00751 22.0278 6.23168 22.0278 6.50814V10.5132C22.0278 10.6459 22.0806 10.7733 22.1744 10.8672C22.2683 10.9611 22.3957 11.0138 22.5285 11.0138H22.5284ZM23.0291 7.00877H25.7325L26.7337 10.0126H23.0291V7.00877Z" fill="#767676"/>
</svg>
