<svg width="60" height="70" viewBox="0 0 60 70" fill="none" xmlns="http://www.w3.org/2000/svg">
<path fill-rule="evenodd" clip-rule="evenodd" d="M59.25 17.2L42.85 0.7L41.1 0H2.5L0 2.5V30H5V5H35V22.5L37.5 25H55V30H60V19L59.25 17.2ZM40 20V5L55 20H40ZM2.5 35L0 37.5V67.5L2.5 70H57.5L60 67.5V37.5L57.5 35H2.5ZM55 60V65H5V40H55V60ZM15 55H13.4V60H10V45H15.3C19.05 45 20.95 46.8 20.95 50C20.9597 50.6801 20.8216 51.3542 20.5454 51.9757C20.2691 52.5973 19.8613 53.1515 19.35 53.6C18.1109 54.5659 16.5699 55.0618 15 55ZM14.7 47.75H13.4V52.4H14.7C16.5 52.4 17.4 51.6 17.4 50.05C17.4 48.5 16.5 47.75 14.7 47.75ZM35 57.9C35.7384 57.1727 36.3158 56.2984 36.6948 55.3337C37.0738 54.369 37.2459 53.3354 37.2 52.3C37.2 47.3 34.55 45 29.2 45H23.9V60H29.2C30.2576 60.0512 31.3149 59.892 32.3105 59.5315C33.3062 59.171 34.2203 58.6165 35 57.9ZM27.25 57.25V47.75H28.9C29.5377 47.7095 30.177 47.7994 30.7788 48.0144C31.3806 48.2293 31.9322 48.5647 32.4 49C32.8238 49.445 33.153 49.9713 33.3679 50.5471C33.5827 51.1228 33.6787 51.7361 33.65 52.35C33.7249 53.668 33.2756 54.9621 32.4 55.95C31.9422 56.388 31.4007 56.729 30.8078 56.9524C30.2149 57.1758 29.583 57.277 28.95 57.25H27.25ZM49.5 54.2H44.65V60H41.25V45H49.95V47.75H44.65V51.45H49.5V54.2Z" fill="white"/>
</svg>
