<svg width="38" height="41" viewBox="0 0 38 41" fill="none" xmlns="http://www.w3.org/2000/svg">
<mask id="path-1-outside-1" maskUnits="userSpaceOnUse" x="-0.145508" y="0" width="38" height="41" fill="black">
<rect fill="currentColor" x="-0.145508" width="38" height="41"/>
<path fill-rule="evenodd" clip-rule="evenodd" d="M37.0428 11.2884C37.1256 11.3629 37.2084 11.4375 37.2084 11.512C37.2912 11.6611 37.2912 11.7357 37.2912 11.7357V11.8102V38.5003C37.2912 39.3204 36.5459 39.9914 35.635 39.9914H2.51071C1.59979 39.9914 0.854492 39.3204 0.854492 38.5003V2.49107C0.854492 1.67098 1.59979 1 2.51071 1H25.2008H25.2836C25.3807 1 25.4493 1.02558 25.5061 1.04677L25.5061 1.04678C25.5463 1.06176 25.5806 1.07455 25.6149 1.07455C25.6977 1.07455 25.7805 1.14911 25.8633 1.22366L37.0428 11.2884ZM26.1118 11.0647H34.4756L26.857 4.20579L26.1118 3.53481V11.0647ZM2.51071 2.49107V38.4258H35.635V12.5558H26.1118C25.2008 12.5558 24.4555 11.8848 24.4555 11.0647V2.49107H2.51071ZM7.56419 16.6562H30.5856C30.9996 16.6562 31.4137 16.9545 31.4137 17.4018C31.4137 17.8491 31.0825 18.1473 30.5856 18.1473H7.56419C7.06733 18.1473 6.73608 17.8491 6.73608 17.4018C6.73608 16.9545 7.06733 16.6562 7.56419 16.6562ZM30.5856 21.0549H7.56419C7.06733 21.0549 6.73608 21.3531 6.73608 21.8004C6.73608 22.2477 7.06733 22.546 7.56419 22.546H30.5856C31.0825 22.546 31.4137 22.2477 31.4137 21.8004C31.4137 21.3531 30.9996 21.0549 30.5856 21.0549ZM7.56419 25.528H30.5856C30.9996 25.528 31.4137 25.8263 31.4137 26.2736C31.4137 26.721 31.0825 27.0192 30.5856 27.0192H7.56419C7.06733 27.0192 6.73608 26.721 6.73608 26.2736C6.73608 25.8263 7.06733 25.528 7.56419 25.528ZM30.5856 29.9267H7.56419C7.06733 29.9267 6.73608 30.2249 6.73608 30.6723C6.73608 31.1197 7.06733 31.4179 7.56419 31.4179H30.5856C31.0825 31.4179 31.4137 31.1197 31.4137 30.6723C31.4137 30.2249 30.9996 29.9267 30.5856 29.9267ZM7.56419 34.3254H30.5856C30.9996 34.3254 31.4137 34.6236 31.4137 35.0709C31.4137 35.5182 31.0825 35.8164 30.5856 35.8164H7.56419C7.06733 35.8164 6.73608 35.5182 6.73608 35.0709C6.73608 34.6236 7.06733 34.3254 7.56419 34.3254Z"/>
</mask>
<path fill-rule="evenodd" clip-rule="evenodd" d="M37.0428 11.2884C37.1256 11.3629 37.2084 11.4375 37.2084 11.512C37.2912 11.6611 37.2912 11.7357 37.2912 11.7357V11.8102V38.5003C37.2912 39.3204 36.5459 39.9914 35.635 39.9914H2.51071C1.59979 39.9914 0.854492 39.3204 0.854492 38.5003V2.49107C0.854492 1.67098 1.59979 1 2.51071 1H25.2008H25.2836C25.3807 1 25.4493 1.02558 25.5061 1.04677L25.5061 1.04678C25.5463 1.06176 25.5806 1.07455 25.6149 1.07455C25.6977 1.07455 25.7805 1.14911 25.8633 1.22366L37.0428 11.2884ZM26.1118 11.0647H34.4756L26.857 4.20579L26.1118 3.53481V11.0647ZM2.51071 2.49107V38.4258H35.635V12.5558H26.1118C25.2008 12.5558 24.4555 11.8848 24.4555 11.0647V2.49107H2.51071ZM7.56419 16.6562H30.5856C30.9996 16.6562 31.4137 16.9545 31.4137 17.4018C31.4137 17.8491 31.0825 18.1473 30.5856 18.1473H7.56419C7.06733 18.1473 6.73608 17.8491 6.73608 17.4018C6.73608 16.9545 7.06733 16.6562 7.56419 16.6562ZM30.5856 21.0549H7.56419C7.06733 21.0549 6.73608 21.3531 6.73608 21.8004C6.73608 22.2477 7.06733 22.546 7.56419 22.546H30.5856C31.0825 22.546 31.4137 22.2477 31.4137 21.8004C31.4137 21.3531 30.9996 21.0549 30.5856 21.0549ZM7.56419 25.528H30.5856C30.9996 25.528 31.4137 25.8263 31.4137 26.2736C31.4137 26.721 31.0825 27.0192 30.5856 27.0192H7.56419C7.06733 27.0192 6.73608 26.721 6.73608 26.2736C6.73608 25.8263 7.06733 25.528 7.56419 25.528ZM30.5856 29.9267H7.56419C7.06733 29.9267 6.73608 30.2249 6.73608 30.6723C6.73608 31.1197 7.06733 31.4179 7.56419 31.4179H30.5856C31.0825 31.4179 31.4137 31.1197 31.4137 30.6723C31.4137 30.2249 30.9996 29.9267 30.5856 29.9267ZM7.56419 34.3254H30.5856C30.9996 34.3254 31.4137 34.6236 31.4137 35.0709C31.4137 35.5182 31.0825 35.8164 30.5856 35.8164H7.56419C7.06733 35.8164 6.73608 35.5182 6.73608 35.0709C6.73608 34.6236 7.06733 34.3254 7.56419 34.3254Z" fill="currentColor"/>
<path d="M37.2084 11.512H37.1084V11.5379L37.121 11.5606L37.2084 11.512ZM37.0428 11.2884L37.1097 11.214V11.214L37.0428 11.2884ZM25.5061 1.04677L25.4708 1.14132L25.484 1.1443L25.5061 1.04677ZM25.5061 1.04678L25.5414 0.95223L25.5282 0.949248L25.5061 1.04678ZM25.8633 1.22366L25.9302 1.14934V1.14934L25.8633 1.22366ZM34.4756 11.0647V11.1647H34.7362L34.5425 10.9904L34.4756 11.0647ZM26.1118 11.0647H26.0118V11.1647H26.1118V11.0647ZM26.857 4.20579L26.924 4.13147L26.857 4.20579ZM26.1118 3.53481L26.1787 3.46049L26.0118 3.31023V3.53481H26.1118ZM2.51071 38.4258H2.41071V38.5258H2.51071V38.4258ZM2.51071 2.49107V2.39107H2.41071V2.49107H2.51071ZM35.635 38.4258V38.5258H35.735V38.4258H35.635ZM35.635 12.5558H35.735V12.4558H35.635V12.5558ZM24.4555 2.49107H24.5555V2.39107H24.4555V2.49107ZM37.3084 11.512C37.3084 11.4386 37.2686 11.3783 37.2335 11.3362C37.1969 11.2923 37.1496 11.25 37.1097 11.214L36.9759 11.3627C37.0187 11.4013 37.0542 11.4335 37.0798 11.4642C37.1068 11.4966 37.1084 11.5108 37.1084 11.512H37.3084ZM37.2912 11.7357C37.3912 11.7357 37.3912 11.7356 37.3912 11.7356C37.3912 11.7356 37.3912 11.7355 37.3912 11.7355C37.3912 11.7354 37.3912 11.7353 37.3912 11.7352C37.3912 11.7351 37.3912 11.7349 37.3912 11.7348C37.3912 11.7344 37.3912 11.7341 37.3912 11.7337C37.3912 11.733 37.3911 11.7322 37.3911 11.7313C37.3911 11.7296 37.391 11.7276 37.3908 11.7253C37.3905 11.7206 37.3899 11.7149 37.389 11.7079C37.387 11.6941 37.3835 11.6758 37.3772 11.653C37.3645 11.6074 37.3407 11.5442 37.2958 11.4635L37.121 11.5606C37.1589 11.6289 37.1765 11.6776 37.1845 11.7065C37.1885 11.721 37.1902 11.7306 37.1909 11.7355C37.1912 11.7379 37.1913 11.7391 37.1913 11.7391C37.1913 11.7391 37.1913 11.7388 37.1912 11.7383C37.1912 11.738 37.1912 11.7376 37.1912 11.7372C37.1912 11.737 37.1912 11.7367 37.1912 11.7365C37.1912 11.7364 37.1912 11.7362 37.1912 11.7361C37.1912 11.736 37.1912 11.736 37.1912 11.7359C37.1912 11.7359 37.1912 11.7358 37.1912 11.7358C37.1912 11.7357 37.1912 11.7357 37.2912 11.7357ZM37.3912 11.8102V11.7357H37.1912V11.8102H37.3912ZM37.3912 38.5003V11.8102H37.1912V38.5003H37.3912ZM35.635 40.0914C36.591 40.0914 37.3912 39.3853 37.3912 38.5003H37.1912C37.1912 39.2556 36.5008 39.8914 35.635 39.8914V40.0914ZM2.51071 40.0914H35.635V39.8914H2.51071V40.0914ZM0.754492 38.5003C0.754492 39.3853 1.5547 40.0914 2.51071 40.0914V39.8914C1.64488 39.8914 0.954492 39.2556 0.954492 38.5003H0.754492ZM0.754492 2.49107V38.5003H0.954492V2.49107H0.754492ZM2.51071 0.9C1.5547 0.9 0.754492 1.60613 0.754492 2.49107H0.954492C0.954492 1.73583 1.64488 1.1 2.51071 1.1V0.9ZM25.2008 0.9H2.51071V1.1H25.2008V0.9ZM25.2836 0.9H25.2008V1.1H25.2836V0.9ZM25.541 0.953077C25.4828 0.931358 25.3998 0.9 25.2836 0.9V1.1C25.3615 1.1 25.4157 1.11981 25.4712 1.14047L25.541 0.953077ZM25.5282 0.949248L25.5282 0.949246L25.484 1.1443L25.484 1.1443L25.5282 0.949248ZM25.6149 0.974553C25.6022 0.974553 25.5858 0.969773 25.541 0.953079L25.4712 1.14047C25.5068 1.15375 25.559 1.17455 25.6149 1.17455V0.974553ZM25.9302 1.14934C25.8901 1.11323 25.8434 1.07088 25.7951 1.03827C25.7473 1.00604 25.6857 0.974553 25.6149 0.974553V1.17455C25.6268 1.17455 25.6481 1.18035 25.6831 1.20403C25.7177 1.22734 25.7537 1.25954 25.7964 1.29798L25.9302 1.14934ZM37.1097 11.214L25.9302 1.14934L25.7964 1.29798L36.9759 11.3627L37.1097 11.214ZM34.4756 10.9647H26.1118V11.1647H34.4756V10.9647ZM26.7901 4.28011L34.4087 11.139L34.5425 10.9904L26.924 4.13147L26.7901 4.28011ZM26.0448 3.60913L26.7901 4.28011L26.924 4.13147L26.1787 3.46049L26.0448 3.60913ZM26.2118 11.0647V3.53481H26.0118V11.0647H26.2118ZM2.61071 38.4258V2.49107H2.41071V38.4258H2.61071ZM35.635 38.3258H2.51071V38.5258H35.635V38.3258ZM35.535 12.5558V38.4258H35.735V12.5558H35.535ZM26.1118 12.6558H35.635V12.4558H26.1118V12.6558ZM24.3555 11.0647C24.3555 11.9496 25.1557 12.6558 26.1118 12.6558V12.4558C25.2459 12.4558 24.5555 11.8199 24.5555 11.0647H24.3555ZM24.3555 2.49107V11.0647H24.5555V2.49107H24.3555ZM2.51071 2.59107H24.4555V2.39107H2.51071V2.59107ZM30.5856 16.5562H7.56419V16.7563H30.5856V16.5562ZM31.5137 17.4018C31.5137 16.8836 31.0379 16.5562 30.5856 16.5562V16.7563C30.9614 16.7563 31.3137 17.0253 31.3137 17.4018H31.5137ZM30.5856 18.2473C30.8538 18.2473 31.0862 18.1666 31.2529 18.0166C31.4205 17.8657 31.5137 17.6515 31.5137 17.4018H31.3137C31.3137 17.5993 31.2413 17.7579 31.1191 17.8679C30.9959 17.9788 30.8142 18.0473 30.5856 18.0473V18.2473ZM7.56419 18.2473H30.5856V18.0473H7.56419V18.2473ZM6.63608 17.4018C6.63608 17.6515 6.72931 17.8657 6.89691 18.0166C7.06355 18.1666 7.29599 18.2473 7.56419 18.2473V18.0473C7.33553 18.0473 7.15391 17.9788 7.03072 17.8679C6.90848 17.7579 6.83608 17.5993 6.83608 17.4018H6.63608ZM7.56419 16.5562C7.29599 16.5562 7.06355 16.6369 6.89691 16.7869C6.72931 16.9378 6.63608 17.152 6.63608 17.4018H6.83608C6.83608 17.2042 6.90848 17.0456 7.03072 16.9356C7.15391 16.8247 7.33553 16.7563 7.56419 16.7563V16.5562ZM7.56419 21.1549H30.5856V20.9549H7.56419V21.1549ZM6.83608 21.8004C6.83608 21.6028 6.90848 21.4443 7.03072 21.3342C7.15391 21.2233 7.33553 21.1549 7.56419 21.1549V20.9549C7.29599 20.9549 7.06355 21.0355 6.8969 21.1856C6.7293 21.3365 6.63608 21.5507 6.63608 21.8004H6.83608ZM7.56419 22.446C7.33553 22.446 7.15391 22.3775 7.03072 22.2666C6.90848 22.1566 6.83608 21.998 6.83608 21.8004H6.63608C6.63608 22.0502 6.7293 22.2644 6.8969 22.4153C7.06355 22.5653 7.29599 22.646 7.56419 22.646V22.446ZM30.5856 22.446H7.56419V22.646H30.5856V22.446ZM31.3137 21.8004C31.3137 21.998 31.2413 22.1566 31.1191 22.2666C30.9959 22.3775 30.8142 22.446 30.5856 22.446V22.646C30.8538 22.646 31.0862 22.5653 31.2529 22.4153C31.4205 22.2644 31.5137 22.0502 31.5137 21.8004H31.3137ZM30.5856 21.1549C30.9614 21.1549 31.3137 21.4239 31.3137 21.8004H31.5137C31.5137 21.2823 31.0379 20.9549 30.5856 20.9549V21.1549ZM30.5856 25.428H7.56419V25.628H30.5856V25.428ZM31.5137 26.2736C31.5137 25.7554 31.0379 25.428 30.5856 25.428V25.628C30.9614 25.628 31.3137 25.8971 31.3137 26.2736H31.5137ZM30.5856 27.1192C30.8538 27.1192 31.0862 27.0385 31.2529 26.8885C31.4205 26.7376 31.5137 26.5234 31.5137 26.2736H31.3137C31.3137 26.4712 31.2413 26.6298 31.1191 26.7399C30.9959 26.8508 30.8142 26.9192 30.5856 26.9192V27.1192ZM7.56419 27.1192H30.5856V26.9192H7.56419V27.1192ZM6.63608 26.2736C6.63608 26.5234 6.7293 26.7376 6.8969 26.8885C7.06355 27.0385 7.29598 27.1192 7.56419 27.1192V26.9192C7.33554 26.9192 7.15392 26.8508 7.03073 26.7399C6.90849 26.6298 6.83608 26.4712 6.83608 26.2736H6.63608ZM7.56419 25.428C7.29598 25.428 7.06355 25.5087 6.8969 25.6587C6.7293 25.8096 6.63608 26.0239 6.63608 26.2736H6.83608C6.83608 26.076 6.90849 25.9174 7.03073 25.8074C7.15392 25.6965 7.33554 25.628 7.56419 25.628V25.428ZM7.56419 30.0267H30.5856V29.8267H7.56419V30.0267ZM6.83608 30.6723C6.83608 30.4747 6.90849 30.3161 7.03073 30.2061C7.15392 30.0951 7.33554 30.0267 7.56419 30.0267V29.8267C7.29598 29.8267 7.06355 29.9074 6.8969 30.0574C6.7293 30.2083 6.63608 30.4225 6.63608 30.6723H6.83608ZM7.56419 31.3179C7.33554 31.3179 7.15392 31.2495 7.03073 31.1385C6.90849 31.0285 6.83608 30.8699 6.83608 30.6723H6.63608C6.63608 30.9221 6.7293 31.1363 6.8969 31.2872C7.06355 31.4372 7.29598 31.5179 7.56419 31.5179V31.3179ZM30.5856 31.3179H7.56419V31.5179H30.5856V31.3179ZM31.3137 30.6723C31.3137 30.8699 31.2413 31.0285 31.1191 31.1385C30.9959 31.2495 30.8142 31.3179 30.5856 31.3179V31.5179C30.8538 31.5179 31.0862 31.4372 31.2529 31.2872C31.4205 31.1363 31.5137 30.9221 31.5137 30.6723H31.3137ZM30.5856 30.0267C30.9614 30.0267 31.3137 30.2958 31.3137 30.6723H31.5137C31.5137 30.1541 31.0379 29.8267 30.5856 29.8267V30.0267ZM30.5856 34.2254H7.56419V34.4254H30.5856V34.2254ZM31.5137 35.0709C31.5137 34.5528 31.0379 34.2254 30.5856 34.2254V34.4254C30.9614 34.4254 31.3137 34.6944 31.3137 35.0709H31.5137ZM30.5856 35.9164C30.8538 35.9164 31.0862 35.8357 31.2529 35.6857C31.4205 35.5348 31.5137 35.3206 31.5137 35.0709H31.3137C31.3137 35.2685 31.2413 35.427 31.1191 35.5371C30.9959 35.648 30.8142 35.7164 30.5856 35.7164V35.9164ZM7.56419 35.9164H30.5856V35.7164H7.56419V35.9164ZM6.63608 35.0709C6.63608 35.3206 6.72931 35.5348 6.89691 35.6857C7.06355 35.8357 7.29599 35.9164 7.56419 35.9164V35.7164C7.33553 35.7164 7.15391 35.648 7.03072 35.5371C6.90848 35.427 6.83608 35.2685 6.83608 35.0709H6.63608ZM7.56419 34.2254C7.29599 34.2254 7.06355 34.306 6.89691 34.4561C6.72931 34.607 6.63608 34.8211 6.63608 35.0709H6.83608C6.83608 34.8733 6.90848 34.7148 7.03072 34.6047C7.15391 34.4938 7.33553 34.4254 7.56419 34.4254V34.2254Z" fill="currentColor" mask="url(#path-1-outside-1)"/>
</svg>
