<svg width="24" height="21" viewBox="0 0 24 21" fill="none" xmlns="http://www.w3.org/2000/svg">
<path d="M22.3773 3.64258C21.462 3.64258 20.5467 3.64258 19.6313 3.64258C19.6313 2.81878 19.6313 1.99501 19.6313 1.1712C19.6313 0.665674 19.2216 0.255859 18.716 0.255859C14.2919 0.255859 9.86787 0.255859 5.44378 0.255859C4.93825 0.255859 4.52844 0.665637 4.52844 1.1712C4.52844 1.99501 4.52844 2.81878 4.52844 3.64258C3.6131 3.64258 2.6978 3.64258 1.78245 3.64258C1.27697 3.64258 0.867188 4.0524 0.867188 4.55792C0.867188 7.54799 0.867188 10.538 0.867188 13.5281C0.867188 14.0336 1.27697 14.4435 1.78253 14.4435C2.69787 14.4435 3.61317 14.4435 4.52851 14.4435C4.52851 15.5243 4.52851 16.6051 4.52851 17.686C4.52851 18.2131 4.52851 18.7402 4.52851 19.2674C4.52851 19.5725 4.59022 19.8002 4.82609 20.0159C4.93595 20.1164 5.05324 20.1815 5.19651 20.2218C5.3292 20.2589 5.46034 20.2558 5.59446 20.2558C7.75628 20.2558 9.9181 20.2558 12.0799 20.2558C14.2417 20.2558 16.4035 20.2558 18.5653 20.2558C18.6995 20.2558 18.8308 20.2589 18.9635 20.2217C19.1069 20.1814 19.2243 20.1161 19.3341 20.0155C19.57 19.7995 19.6313 19.5715 19.6313 19.2663C19.6313 18.7389 19.6313 18.2114 19.6313 17.684C19.6313 16.6038 19.6313 15.5237 19.6313 14.4435C20.5466 14.4435 21.4619 14.4435 22.3773 14.4435C22.8828 14.4435 23.2926 14.0337 23.2926 13.5282C23.2926 10.5381 23.2926 7.54802 23.2926 4.55796C23.2927 4.05243 22.8829 3.64258 22.3773 3.64258ZM3.1555 6.8691C2.71319 6.8691 2.3546 6.51052 2.3546 6.0682C2.3546 5.62588 2.71319 5.26729 3.1555 5.26729C3.59782 5.26729 3.95641 5.62588 3.95641 6.0682C3.95641 6.51052 3.59782 6.8691 3.1555 6.8691ZM18.716 19.3404H5.44382V12.1094H18.716V19.3404ZM18.716 3.64258C14.292 3.64258 9.8679 3.64258 5.44382 3.64258C5.44382 3.1239 5.44382 2.60518 5.44382 2.08654C5.44382 1.58101 5.8536 1.1712 6.35916 1.1712C10.173 1.1712 13.9869 1.1712 17.8007 1.1712C18.3063 1.1712 18.7161 1.58098 18.7161 2.08654C18.716 2.60526 18.716 3.12394 18.716 3.64258Z" fill="currentColor"/>
</svg>
