<?xml version="1.0" encoding="UTF-8"?><svg width="23" height="22" viewBox="0 0 23 22" fill="none" xmlns="http://www.w3.org/2000/svg"><g clip-path="url(#clip0)"><path d="M11.6004.92188c-5.61148 0-8.43817 4.02017-8.43817 7.3745 0 2.03102.77053 3.83592 2.41629 4.51012.2722.1089.5109.0042.59047-.2931.05444-.2052.18425-.7287.24288-.9464.07957-.2974.05025-.3979-.17169-.6575-.4774-.5612-.77891-1.28563-.77891-2.3158 0-2.98162 2.23203-5.65336 5.81253-5.65336 3.17 0 4.9121 1.93889 4.9121 4.52269 0 3.40457-1.5075 6.27737-3.7438 6.27737-1.2353 0-2.1608-1.0218-1.8635-2.2739.356-1.49505 1.0427-3.11149 1.0427-4.19191 0-.96736-.5192-1.77139-1.5913-1.77139-1.26046 0-2.27807 1.30655-2.27807 3.057 0 1.11393.37689 1.8677.37689 1.8677s-1.2898 5.4733-1.51594 6.4323c-.45227 1.9096-.067 4.2505-.0335 4.485.02094.1424.20101.1759.28057.067.11726-.1508 1.62064-2.0101 2.13153-3.8652.14657-.5235.82916-3.2455.82916-3.2455.41036.7831 1.60806 1.4699 2.88536 1.4699 3.794 0 6.3694-3.459 6.3694-8.09061 0-3.49671-2.9649-6.75892-7.475-6.75892z" fill="currentColor"/></g><defs><clipPath id="clip0"><path fill="currentColor" transform="translate(.68298 .46118)" d="M0 0h21.4409v21.4409H0z"/></clipPath></defs></svg>