<?xml version="1.0" encoding="UTF-8"?><svg width="28" height="28" viewBox="0 0 28 28" fill="none" xmlns="http://www.w3.org/2000/svg">
<g clip-path="url(#clip0)">
<path d="M27.8324 5.27236C26.8283 5.71279 25.7585 6.00473 24.643 6.14648C25.7905 5.46136 26.6663 4.38473 27.0781 3.08704C26.0082 3.72492 24.827 4.17548 23.5681 4.42692C22.5522 3.34523 21.1043 2.67529 19.5248 2.67529C16.4603 2.67529 13.9932 5.16267 13.9932 8.21198C13.9932 8.65073 14.0303 9.07261 14.1215 9.47423C9.51965 9.24979 5.44771 7.04423 2.71227 3.68442C2.23471 4.51298 1.95458 5.46136 1.95458 6.48229C1.95458 8.39929 2.94177 10.0986 4.41327 11.0824C3.52396 11.0655 2.65152 10.8074 1.9124 10.4007V10.4614C1.9124 13.1513 3.83108 15.3855 6.34715 15.9002C5.89658 16.0234 5.40552 16.0825 4.8959 16.0825C4.54152 16.0825 4.18377 16.0622 3.84796 15.988C4.56515 18.18 6.60027 19.7916 9.02015 19.8439C7.1369 21.3171 4.74571 22.2047 2.15709 22.2047C1.70315 22.2047 1.26777 22.1845 0.832397 22.1288C3.28433 23.71 6.19021 24.6128 9.3239 24.6128C19.5096 24.6128 25.0784 16.1753 25.0784 8.86167C25.0784 8.61698 25.07 8.38073 25.0581 8.14617C26.1567 7.36654 27.0798 6.39286 27.8324 5.27236Z" fill="currentColor"/>
</g>
<defs>
<clipPath id="clip0">
<rect width="27" height="27" fill="white" transform="translate(0.832397 0.144043)"/>
</clipPath>
</defs>
</svg>
